<?xml version="1.0" standalone="no"?>
<!DOCTYPE svg PUBLIC "-//W3C//DTD SVG 20010904//EN"
 "http://www.w3.org/TR/2001/REC-SVG-20010904/DTD/svg10.dtd">
<svg version="1.0" xmlns="http://www.w3.org/2000/svg"
 width="512.000000pt" height="512.000000pt" viewBox="0 0 512.000000 512.000000"
 preserveAspectRatio="xMidYMid meet">
<metadata>
Created by potrace 1.16, written by Peter Selinger 2001-2019
</metadata>
<g transform="translate(0.000000,512.000000) scale(0.100000,-0.100000)"
fill="#000000" stroke="none">
<path d="M2522 5050 c-44 -38 -82 -67 -84 -64 -3 3 -17 -9 -31 -26 -45 -53
-74 -31 -31 25 25 33 20 52 -6 21 -6 -8 -18 -12 -25 -9 -8 2 -34 -11 -57 -30
-24 -19 -72 -52 -108 -73 -214 -123 -365 -287 -437 -470 -45 -116 -43 -359 3
-637 5 -30 4 -36 -7 -32 -8 3 -23 -1 -34 -9 -17 -12 -20 -25 -19 -83 2 -96 39
-243 73 -290 15 -21 31 -58 35 -83 48 -308 304 -662 559 -775 218 -96 460 -25
683 201 144 145 283 402 310 574 4 24 20 63 36 85 35 50 69 188 71 288 2 60
-1 70 -21 85 l-23 18 21 85 c29 125 40 249 30 369 -14 172 -65 287 -179 401
-75 74 -149 121 -271 169 -47 19 -92 40 -101 48 -13 10 -18 10 -21 1 -2 -7
-18 0 -41 20 -20 18 -47 33 -61 35 -46 5 -123 98 -133 161 -7 41 -11 42 -46
15 -38 -30 -43 -24 -13 15 42 55 14 41 -72 -35z"/>
<path d="M1950 2636 c0 -25 -84 -99 -163 -145 -112 -63 -275 -134 -442 -191
-300 -102 -400 -177 -494 -372 -84 -174 -138 -361 -190 -653 -47 -262 -65
-434 -65 -620 -1 -163 0 -173 24 -220 22 -43 34 -54 90 -81 305 -148 963 -291
1590 -345 171 -15 655 -6 843 15 322 37 648 100 927 180 293 84 379 124 429
200 l26 40 0 245 c-1 274 -11 369 -70 631 -64 282 -177 618 -235 699 -80 109
-306 236 -655 366 -99 36 -206 81 -239 98 -72 38 -154 111 -162 143 -3 13 -9
24 -13 24 -3 0 -22 -30 -41 -67 -121 -230 -285 -420 -415 -484 -64 -31 -77
-34 -160 -34 -78 0 -97 4 -142 27 -134 71 -258 215 -368 430 -37 71 -68 128
-71 128 -2 0 -4 -6 -4 -14z m1000 -1791 l0 -145 -390 0 -390 0 0 145 0 145
390 0 390 0 0 -145z"/>
</g>
</svg>
