<?xml version="1.0" standalone="no"?>
<!DOCTYPE svg PUBLIC "-//W3C//DTD SVG 20010904//EN"
 "http://www.w3.org/TR/2001/REC-SVG-20010904/DTD/svg10.dtd">
<svg version="1.0" xmlns="http://www.w3.org/2000/svg"
 width="704.000000pt" height="1227.000000pt" viewBox="0 0 704.000000 1227.000000"
 preserveAspectRatio="xMidYMid meet">
<metadata>
Created by potrace 1.16, written by Peter Selinger 2001-2019
</metadata>
<g transform="translate(0.000000,1227.000000) scale(0.100000,-0.100000)"
fill="#000000" stroke="none">
<path d="M1835 11830 c-198 -82 -375 -157 -393 -167 -39 -20 -62 -59 -62 -102
0 -17 30 -147 67 -288 36 -142 68 -269 70 -283 3 -21 -8 -34 -72 -84 -97 -76
-274 -253 -354 -354 l-63 -79 -296 75 c-307 78 -327 81 -371 45 -29 -24 -332
-753 -338 -813 -4 -36 0 -51 17 -72 12 -15 136 -96 276 -179 l255 -151 -8 -92
c-10 -118 -10 -395 0 -517 l8 -96 -243 -143 c-134 -78 -258 -158 -275 -176
-49 -51 -45 -82 36 -275 38 -90 108 -261 157 -379 90 -217 112 -254 163 -267
17 -4 125 19 323 69 l297 76 43 -57 c60 -80 288 -310 375 -378 40 -32 73 -62
73 -67 0 -5 -31 -133 -70 -283 -38 -151 -70 -288 -70 -305 0 -58 31 -90 127
-130 714 -301 724 -304 785 -264 13 8 92 133 177 276 117 199 157 259 170 256
9 -3 86 -10 173 -16 147 -10 449 -1 492 16 11 4 54 -60 162 -243 80 -136 160
-261 175 -278 52 -54 79 -47 464 113 423 176 425 177 449 226 l19 38 -77 300
-77 300 28 21 c151 118 257 220 373 356 52 61 99 111 104 111 6 1 139 -32 296
-71 194 -49 294 -70 312 -66 57 15 75 45 201 352 213 517 201 480 185 528 -13
41 -19 45 -280 202 l-267 159 7 66 c9 84 9 486 0 571 l-7 65 260 154 c143 85
267 166 276 179 32 50 23 82 -140 476 -161 390 -176 417 -235 432 -19 4 -116
-16 -312 -66 -157 -39 -290 -72 -296 -71 -6 0 -50 46 -96 103 -97 115 -204
221 -326 321 -57 47 -81 73 -78 85 3 9 37 141 76 294 63 247 70 282 60 313 -6
18 -22 42 -34 52 -13 10 -196 89 -406 176 -415 172 -426 174 -477 123 -13 -13
-91 -136 -172 -273 -82 -137 -153 -248 -157 -247 -5 1 -83 7 -173 14 -130 9
-202 9 -344 -1 -98 -6 -180 -10 -181 -9 -1 2 -70 118 -152 258 -156 265 -178
291 -239 290 -16 0 -192 -67 -390 -149z m489 -369 c84 -143 158 -257 173 -266
28 -19 82 -21 163 -5 91 17 424 24 530 10 52 -6 127 -14 166 -17 68 -5 72 -4
101 23 17 16 93 135 169 264 76 129 139 237 141 239 1 2 110 -40 240 -94 131
-54 252 -104 270 -112 l31 -13 -69 -272 c-38 -150 -69 -286 -69 -303 0 -44 27
-78 103 -134 146 -105 340 -299 452 -451 59 -80 95 -110 134 -110 14 0 148 32
299 71 151 38 276 68 278 66 6 -6 214 -509 217 -524 1 -8 -102 -75 -248 -161
-191 -114 -254 -156 -269 -181 -18 -31 -18 -35 0 -159 25 -166 25 -449 1 -613
-21 -139 -15 -166 47 -207 22 -16 139 -86 258 -156 l217 -128 -18 -46 c-34
-85 -202 -486 -205 -490 -2 -1 -127 29 -278 68 -151 38 -284 70 -296 70 -43 0
-74 -25 -143 -119 -92 -123 -305 -336 -435 -434 -56 -41 -104 -83 -108 -92
-13 -36 -3 -92 63 -351 38 -148 66 -272 63 -275 -19 -16 -536 -222 -539 -213
-16 43 -294 492 -314 507 -32 23 -60 24 -219 3 -159 -20 -361 -20 -520 0 -154
20 -184 20 -214 1 -13 -9 -87 -125 -166 -259 -79 -134 -146 -247 -150 -251 -7
-8 -515 195 -534 213 -5 5 21 126 64 292 88 346 92 318 -62 434 -129 97 -321
289 -416 416 -81 108 -103 128 -145 128 -15 0 -152 -32 -303 -71 -152 -39
-277 -69 -278 -67 -16 21 -217 529 -212 536 3 5 114 73 246 152 132 78 249
153 260 167 24 31 25 57 5 199 -21 142 -21 415 -1 564 22 160 21 167 -16 204
-18 17 -136 92 -261 165 -126 74 -231 139 -233 146 -4 8 197 513 212 533 2 4
12 2 340 -83 116 -30 224 -55 240 -55 43 0 64 19 145 126 125 167 261 298 492
476 67 52 67 62 -14 378 -42 165 -68 285 -63 290 8 8 512 219 524 220 3 0 72
-112 154 -249z"/>
<path d="M2840 10494 c-359 -43 -657 -182 -896 -419 -56 -55 -126 -134 -156
-175 -263 -360 -352 -808 -243 -1235 194 -765 955 -1241 1727 -1080 357 74
663 271 888 570 70 93 178 304 214 420 66 207 90 462 48 521 -16 23 -58 44
-90 44 -74 0 -122 -52 -122 -132 0 -219 -88 -491 -222 -685 -61 -89 -198 -232
-278 -290 -213 -154 -430 -230 -686 -240 -457 -19 -860 196 -1108 590 -374
596 -146 1411 485 1737 203 105 393 146 623 137 220 -9 389 -60 590 -177 57
-33 115 -60 130 -60 91 0 150 114 95 184 -73 93 -374 227 -609 271 -84 16
-321 27 -390 19z"/>
<path d="M4225 10010 c-11 -5 -321 -310 -690 -679 -368 -369 -674 -671 -680
-671 -5 0 -165 155 -355 345 l-346 345 -45 0 c-51 0 -82 -18 -104 -60 -19 -36
-19 -73 -1 -108 8 -15 192 -204 408 -419 l394 -393 42 0 c24 0 55 6 70 14 15
8 352 340 749 738 787 788 753 750 720 831 -24 56 -101 83 -162 57z"/>
<path d="M6395 8731 c-11 -5 -29 -19 -40 -31 -20 -22 -20 -40 -25 -1539 l-5
-1518 -30 -48 c-17 -27 -50 -63 -74 -80 l-43 -30 -1591 -3 c-1754 -3 -1638 -7
-1706 58 -58 56 -65 81 -71 253 l-5 159 -39 35 c-35 32 -42 35 -83 30 -33 -3
-54 -13 -77 -36 -31 -31 -31 -32 -35 -156 -1 -69 2 -155 8 -192 32 -189 186
-349 370 -383 29 -5 152 -10 272 -10 l219 0 0 -358 0 -358 -59 -12 c-132 -27
-286 -143 -343 -257 -65 -130 -63 -102 -63 -745 l0 -585 23 -65 c33 -90 67
-145 130 -206 58 -58 128 -101 207 -130 43 -16 94 -19 385 -24 l335 -5 2 -957
c2 -757 5 -963 15 -982 16 -29 416 -454 439 -467 28 -14 88 -11 117 7 33 20
434 446 444 471 3 10 7 449 7 976 l1 957 308 0 c340 0 385 6 495 61 124 63
238 211 266 347 14 69 15 1127 1 1203 -35 188 -206 362 -395 402 l-55 11 0
358 0 358 220 0 c241 0 295 7 387 52 69 34 167 128 201 193 55 109 52 21 52
1657 0 1658 4 1550 -60 1583 -31 16 -73 19 -105 6z m-937 -3842 l2 -347 -182
-7 c-101 -3 -502 -5 -893 -3 l-710 3 -3 340 c-1 187 0 346 3 352 3 10 189 12
892 10 l888 -2 3 -346z m269 -614 c68 -20 143 -88 174 -157 l24 -53 0 -555 0
-555 -24 -49 c-29 -60 -83 -115 -136 -141 -39 -20 -67 -20 -1200 -20 l-1160 0
-47 27 c-25 16 -63 47 -82 70 -65 76 -66 81 -66 672 0 317 4 545 10 566 15 56
65 126 109 156 85 56 27 53 1232 54 966 0 1122 -2 1166 -15z m-887 -1967 l0
-193 -185 185 c-102 102 -185 188 -185 192 0 5 83 8 185 8 l185 0 0 -192z
m-268 -255 l268 -268 0 -175 0 -175 -275 275 -275 275 0 167 c0 93 3 168 7
168 5 0 128 -120 275 -267z m268 -1133 l0 -175 -275 275 -275 276 0 174 0 175
275 -275 275 -275 0 -175z m-325 -180 l209 -209 -74 -79 c-41 -44 -77 -80 -81
-81 -3 0 -67 64 -142 144 l-137 145 0 145 c0 80 3 145 8 145 4 0 101 -94 217
-210z"/>
<path d="M3930 5093 c-63 -20 -90 -56 -90 -120 0 -45 20 -77 60 -98 43 -22
627 -22 670 0 81 42 79 170 -4 209 -29 14 -75 16 -328 15 -161 0 -300 -3 -308
-6z"/>
<path d="M4445 3270 c-55 -3 -108 -9 -117 -14 -9 -4 -27 -28 -38 -52 -19 -38
-20 -49 -10 -79 6 -19 25 -46 41 -60 l31 -25 579 0 c636 0 622 -1 654 60 8 16
15 42 15 57 0 33 -31 88 -57 101 -20 11 -937 20 -1098 12z"/>
<path d="M3532 3257 c-72 -40 -75 -141 -7 -195 26 -21 38 -22 207 -22 202 0
224 6 253 66 23 48 13 99 -27 136 l-30 28 -187 0 c-130 -1 -193 -4 -209 -13z"/>
<path d="M5859 7287 c-19 -13 -39 -38 -46 -57 -16 -46 -18 -1346 -3 -1402 21
-75 101 -109 170 -73 62 32 60 6 60 770 0 772 3 742 -65 771 -48 20 -77 18
-116 -9z"/>
</g>
</svg>
