<?xml version="1.0" standalone="no"?>
<!DOCTYPE svg PUBLIC "-//W3C//DTD SVG 20010904//EN"
 "http://www.w3.org/TR/2001/REC-SVG-20010904/DTD/svg10.dtd">
<svg version="1.0" xmlns="http://www.w3.org/2000/svg"
 width="512.000000pt" height="512.000000pt" viewBox="0 0 512.000000 512.000000"
 preserveAspectRatio="xMidYMid meet">
<metadata>
Created by potrace 1.16, written by Peter Selinger 2001-2019
</metadata>
<g transform="translate(0.000000,512.000000) scale(0.100000,-0.100000)"
fill="#000000" stroke="none">
<path d="M3226 5105 c-757 -108 -1328 -681 -1437 -1440 -17 -120 -12 -366 10
-497 24 -140 77 -307 139 -441 l46 -98 -236 -236 -235 -235 -107 108 -106 108
-556 -554 c-326 -326 -576 -583 -604 -623 -242 -340 -160 -814 183 -1057 260
-184 615 -184 874 0 40 28 297 277 623 604 l555 557 -109 105 -108 106 236
237 236 236 98 -46 c116 -56 250 -102 387 -131 87 -20 130 -22 335 -22 223 -1
241 1 354 28 232 54 431 143 616 274 105 74 280 242 355 341 162 213 272 466
321 736 24 135 25 432 1 560 -47 253 -132 462 -272 669 -244 363 -648 622
-1090 701 -126 23 -386 28 -509 10z m459 -311 c482 -79 901 -441 1060 -918
122 -364 80 -783 -112 -1112 -163 -278 -429 -500 -729 -607 -149 -53 -264 -72
-454 -72 -192 0 -273 12 -433 66 -215 71 -365 165 -532 333 -209 210 -318 412
-382 706 -28 131 -25 401 5 539 146 658 732 1114 1392 1084 52 -2 136 -11 185
-19z m-1415 -2529 l105 -105 -216 -216 -215 -215 -109 106 -108 107 214 214
c118 118 216 214 219 214 3 0 52 -47 110 -105z m-650 -647 l322 -322 -459
-457 c-417 -416 -464 -459 -524 -488 -332 -156 -698 113 -648 477 20 144 24
149 528 655 250 251 456 457 457 457 1 0 147 -145 324 -322z"/>
<path d="M2860 4080 l0 -150 610 0 610 0 0 150 0 150 -610 0 -610 0 0 -150z"/>
<path d="M2860 3470 l0 -150 610 0 610 0 0 150 0 150 -610 0 -610 0 0 -150z"/>
<path d="M2864 3007 c-2 -7 -3 -76 -2 -152 l3 -140 378 -3 377 -2 0 155 0 155
-375 0 c-299 0 -377 -3 -381 -13z"/>
</g>
</svg>
