<?xml version="1.0" standalone="no"?>
<!DOCTYPE svg PUBLIC "-//W3C//DTD SVG 20010904//EN"
 "http://www.w3.org/TR/2001/REC-SVG-20010904/DTD/svg10.dtd">
<svg version="1.0" xmlns="http://www.w3.org/2000/svg"
 width="851.000000pt" height="626.000000pt" viewBox="0 0 851.000000 626.000000"
 preserveAspectRatio="xMidYMid meet">
<metadata>
Created by potrace 1.16, written by Peter Selinger 2001-2019
</metadata>
<g transform="translate(0.000000,626.000000) scale(0.100000,-0.100000)"
fill="#000000" stroke="none">
<path d="M4280 5451 c0 -15 -33 -23 -41 -10 -12 20 -84 -44 -146 -130 -1 -2
-16 2 -33 9 -23 10 -29 17 -25 31 10 31 -23 35 -53 6 -15 -14 -70 -51 -122
-82 -52 -31 -97 -60 -100 -64 -3 -4 -12 -12 -21 -17 -52 -29 -188 -177 -225
-244 -10 -19 -22 -37 -26 -40 -4 -3 -19 -37 -33 -75 -42 -114 -44 -301 -7
-578 9 -63 7 -69 -24 -85 -27 -14 -33 -53 -22 -135 15 -117 34 -177 75 -233
13 -17 23 -40 23 -52 0 -32 30 -141 58 -212 29 -73 87 -187 103 -200 3 -3 21
-27 39 -55 50 -74 186 -207 258 -253 91 -59 181 -87 272 -86 107 1 171 22 314
103 68 39 198 167 253 251 20 30 39 57 42 60 3 3 11 14 17 25 6 11 22 40 36
65 31 57 78 174 89 220 21 94 31 123 48 141 24 26 49 105 66 213 15 90 10 122
-20 152 -18 18 -18 28 -5 74 44 147 53 372 20 498 -32 123 -65 179 -157 270
-99 96 -191 147 -367 203 -116 36 -214 121 -237 202 -7 27 -15 37 -29 37 -11
0 -20 -4 -20 -9z"/>
<path d="M3623 3049 c-45 -51 -101 -85 -283 -174 -25 -12 -81 -36 -125 -53
-44 -16 -110 -42 -148 -56 -37 -14 -74 -26 -82 -26 -9 0 -23 -4 -33 -9 -9 -5
-35 -17 -57 -26 -64 -27 -148 -82 -199 -130 -56 -52 -132 -195 -177 -330 -7
-22 -17 -44 -21 -49 -4 -6 -8 -20 -8 -33 0 -13 -4 -31 -9 -41 -12 -21 -54
-203 -77 -327 -60 -333 -89 -768 -53 -791 5 -3 9 -12 9 -21 0 -27 47 -79 82
-93 18 -7 47 -18 63 -25 61 -27 193 -72 295 -101 30 -8 69 -20 86 -25 17 -5
39 -9 51 -9 11 0 23 -3 27 -7 4 -4 33 -13 64 -20 31 -6 91 -19 132 -28 106
-23 224 -45 300 -55 106 -15 200 -28 290 -39 104 -13 1023 -14 1130 -1 69 9
103 13 275 39 117 18 498 105 527 121 10 6 24 10 33 10 14 0 128 37 240 77 86
31 137 70 171 129 18 32 26 256 14 399 -21 250 -51 427 -105 615 -9 30 -18 66
-21 80 -3 14 -9 34 -14 45 -4 11 -14 40 -21 65 -29 101 -103 288 -130 326 -25
37 -47 58 -109 107 -65 52 -256 152 -397 208 -13 5 -33 13 -45 18 -42 18 -203
73 -225 78 -13 3 -23 9 -23 14 0 5 -7 9 -14 9 -27 0 -140 73 -182 117 -45 47
-59 52 -67 26 -6 -18 -48 -94 -57 -103 -3 -3 -14 -21 -24 -40 -25 -44 -97
-144 -108 -148 -4 -2 -8 -8 -8 -14 0 -21 -165 -168 -189 -168 -6 0 -11 -4 -11
-9 0 -13 -126 -51 -170 -51 -53 0 -160 36 -196 66 -108 89 -136 117 -185 187
-30 43 -59 83 -65 90 -5 7 -32 56 -60 109 -27 54 -52 98 -56 98 -5 0 -20 -14
-35 -31z"/>
</g>
</svg>
