<?xml version="1.0" standalone="no"?>
<!DOCTYPE svg PUBLIC "-//W3C//DTD SVG 20010904//EN"
 "http://www.w3.org/TR/2001/REC-SVG-20010904/DTD/svg10.dtd">
<svg version="1.0" xmlns="http://www.w3.org/2000/svg"
 width="512.000000pt" height="512.000000pt" viewBox="0 0 512.000000 512.000000"
 preserveAspectRatio="xMidYMid meet">
<metadata>
Created by potrace 1.16, written by Peter Selinger 2001-2019
</metadata>
<g transform="translate(0.000000,512.000000) scale(0.100000,-0.100000)"
fill="#000000" stroke="none">
<path d="M2598 5100 c-20 -11 -47 -36 -60 -57 l-23 -38 -3 -415 c-2 -228 0
-434 3 -458 11 -76 89 -142 167 -142 l33 0 132 -333 c73 -182 135 -339 137
-347 4 -10 -7 -21 -32 -32 -20 -10 -48 -34 -62 -55 -24 -35 -25 -43 -28 -219
-3 -167 -2 -186 17 -222 33 -64 73 -86 164 -91 l77 -3 0 -148 c0 -82 5 -161
11 -177 26 -69 100 -112 192 -113 l57 0 0 -271 c0 -154 4 -278 10 -288 5 -10
84 -74 175 -142 l165 -124 0 -168 c0 -165 0 -168 25 -192 16 -17 35 -25 59
-25 86 0 96 24 96 228 l0 160 164 123 c90 67 169 133 175 146 7 15 11 119 11
288 l0 265 58 0 c62 0 125 24 155 58 36 40 46 92 47 240 l0 142 66 0 c79 0
127 23 164 77 24 35 25 45 28 206 3 139 1 177 -13 213 -17 44 -74 104 -100
104 -8 0 -15 3 -15 7 0 5 61 162 136 349 l137 342 48 4 c32 3 60 14 84 32 67
51 65 37 65 534 l0 449 -23 34 c-12 18 -38 44 -56 56 l-34 23 -1186 0 c-1152
-1 -1187 -1 -1223 -20z m2342 -545 l0 -385 -1120 0 -1120 0 0 385 0 385 1120
0 1120 0 0 -385z m-241 -617 c-11 -29 -72 -185 -136 -346 l-115 -292 -631 2
-631 3 -137 343 -137 342 904 0 904 0 -21 -52z m-109 -943 l0 -125 -396 0
c-404 0 -422 -2 -451 -39 -20 -25 -15 -85 8 -115 l20 -26 280 0 279 0 0 -130
0 -130 -515 0 -515 0 0 130 0 130 105 0 c99 0 107 2 130 25 38 37 35 95 -6
129 l-31 26 -229 0 -229 0 0 125 0 125 775 0 775 0 0 -125z m-520 -980 l0
-235 -126 -94 -126 -95 -129 97 -129 97 0 232 0 233 255 0 255 0 0 -235z"/>
<path d="M2914 4770 c-55 -22 -72 -103 -30 -145 30 -30 75 -38 186 -33 95 4
122 17 141 67 14 35 -7 88 -41 106 -32 17 -219 20 -256 5z"/>
<path d="M3434 4770 c-47 -19 -68 -85 -43 -132 25 -47 38 -48 681 -48 387 0
616 4 640 11 67 18 89 108 37 155 -20 18 -49 19 -658 21 -350 1 -646 -2 -657
-7z"/>
<path d="M1910 4421 c-79 -16 -148 -69 -186 -143 -8 -16 -37 -151 -64 -300
-44 -242 -57 -287 -80 -288 -3 0 -99 68 -215 150 -115 82 -226 157 -245 167
-19 9 -63 19 -98 21 -112 8 -130 -4 -365 -237 -114 -113 -217 -220 -227 -237
-31 -50 -43 -125 -30 -188 9 -46 37 -93 171 -287 117 -168 158 -236 154 -250
-4 -10 -9 -19 -13 -19 -4 0 -127 -22 -273 -49 -162 -30 -281 -57 -305 -69 -51
-26 -88 -66 -113 -122 -19 -42 -21 -65 -21 -363 0 -301 1 -319 21 -362 23 -50
85 -110 133 -130 17 -7 151 -34 298 -61 222 -40 269 -51 274 -66 3 -12 -40
-82 -140 -222 -180 -254 -189 -272 -190 -356 -1 -109 19 -138 242 -363 224
-225 262 -251 366 -251 84 1 118 18 356 184 113 79 212 145 221 147 8 3 20 -2
26 -9 5 -7 31 -129 57 -270 25 -142 53 -276 62 -298 20 -50 99 -122 152 -138
27 -8 138 -12 346 -12 331 0 342 2 413 56 64 49 79 90 128 360 25 137 48 261
51 276 11 55 32 46 260 -113 120 -83 234 -159 254 -167 54 -23 156 -19 210 7
28 14 109 87 213 189 156 156 167 169 167 204 0 50 -8 66 -41 83 -61 32 -71
26 -249 -150 -142 -140 -171 -165 -197 -165 -23 0 -76 31 -204 120 -96 66
-175 124 -177 129 -1 4 8 12 20 18 96 44 319 248 423 387 49 65 60 86 60 118
0 49 -39 88 -86 88 -45 0 -63 -13 -123 -94 -77 -101 -234 -249 -340 -320 -162
-107 -353 -185 -546 -222 -125 -23 -360 -24 -487 -1 -578 105 -1020 529 -1155
1107 -29 126 -36 386 -14 522 100 603 568 1077 1171 1183 132 24 348 24 470 0
50 -9 115 -19 145 -22 49 -4 58 -2 78 20 39 42 30 117 -17 141 -74 39 -352 72
-516 61 -96 -5 -235 -25 -301 -41 -20 -5 -20 -1 18 208 49 276 31 258 253 258
106 0 173 4 190 12 27 12 55 54 55 83 0 32 -30 73 -61 84 -35 12 -321 13 -379
2z m-701 -698 c94 -65 171 -121 171 -125 0 -3 -17 -17 -37 -29 -164 -99 -346
-276 -462 -450 l-57 -85 -115 165 c-130 187 -143 211 -130 243 5 13 97 110
205 217 183 182 197 193 225 188 16 -4 107 -59 200 -124z m-563 -1135 c-51
-186 -56 -483 -11 -697 7 -36 12 -68 10 -70 -5 -5 -359 57 -402 70 -62 20 -63
25 -63 327 0 273 0 273 23 296 17 17 45 27 98 36 41 7 128 23 194 35 158 30
159 30 151 3z m241 -1287 c109 -162 263 -315 428 -425 39 -26 69 -49 68 -52
-1 -3 -80 -59 -175 -125 -128 -89 -180 -119 -203 -119 -27 0 -57 26 -228 198
-152 153 -197 204 -197 224 0 16 44 89 121 201 67 98 125 177 128 177 3 -1 30
-36 58 -79z m1053 -675 c192 -33 410 -30 594 9 38 8 71 13 73 11 2 -2 -13 -96
-34 -211 -30 -168 -42 -211 -60 -231 l-22 -24 -275 0 c-271 0 -275 0 -301 23
-22 20 -29 43 -60 217 -19 107 -37 203 -39 213 -4 15 0 18 17 13 12 -3 60 -12
107 -20z"/>
<path d="M1865 3378 c-52 -30 -62 -102 -20 -143 56 -56 155 -18 155 60 0 69
-77 116 -135 83z"/>
<path d="M1618 3209 c-48 -13 -201 -120 -269 -188 -192 -192 -309 -494 -309
-799 0 -85 2 -95 25 -117 46 -47 137 -24 149 38 3 12 8 65 11 117 11 179 58
341 137 474 53 91 191 228 281 280 78 45 97 67 97 112 0 59 -61 100 -122 83z"/>
<path d="M2095 2770 c-196 -39 -364 -193 -426 -390 -27 -85 -29 -231 -5 -315
57 -197 204 -344 401 -401 85 -24 230 -22 315 5 171 54 307 184 368 351 32 88
40 229 18 324 -48 204 -216 373 -417 421 -68 16 -188 18 -254 5z m259 -200
c36 -14 78 -41 116 -77 131 -121 163 -298 84 -456 -34 -66 -109 -138 -181
-174 -52 -25 -68 -28 -158 -28 -88 0 -107 3 -157 27 -225 105 -297 380 -152
579 101 139 282 191 448 129z"/>
</g>
</svg>
