<?xml version="1.0" standalone="no"?>
<!DOCTYPE svg PUBLIC "-//W3C//DTD SVG 20010904//EN"
 "http://www.w3.org/TR/2001/REC-SVG-20010904/DTD/svg10.dtd">
<svg version="1.0" xmlns="http://www.w3.org/2000/svg"
 width="581.000000pt" height="560.000000pt" viewBox="0 0 581.000000 560.000000"
 preserveAspectRatio="xMidYMid meet">
<metadata>
Created by potrace 1.16, written by Peter Selinger 2001-2019
</metadata>
<g transform="translate(0.000000,560.000000) scale(0.100000,-0.100000)"
fill="#000000" stroke="none">
<path d="M1106 5549 c-244 -32 -466 -139 -644 -313 -287 -279 -403 -694 -301
-1083 80 -305 294 -569 577 -712 l62 -31 0 -1345 0 -1345 663 3 662 2 0 60 0
60 -602 3 -603 2 0 1256 0 1257 33 -7 c197 -40 314 -45 463 -21 241 39 439
140 614 313 322 319 416 787 245 1225 -7 16 47 17 1049 17 l1056 0 0 -655 0
-655 65 0 65 0 -3 713 -2 712 -1152 5 -1151 5 -44 65 c-23 36 -79 101 -123
145 -243 245 -593 367 -929 324z m408 -153 c355 -107 624 -395 702 -751 23
-104 23 -312 0 -412 -66 -298 -262 -549 -531 -683 -269 -134 -562 -141 -844
-21 -264 112 -484 369 -563 656 -30 111 -32 373 -4 485 99 394 399 671 816
753 14 3 95 4 180 3 134 -3 167 -7 244 -30z"/>
<path d="M1180 4825 l0 -325 -325 0 -325 0 0 -60 0 -60 325 0 325 0 0 -325 0
-325 60 0 60 0 2 323 3 322 323 3 322 2 0 60 0 60 -325 0 -325 0 0 325 0 325
-60 0 -60 0 0 -325z"/>
<path d="M2590 4240 l0 -60 640 0 640 0 0 60 0 60 -640 0 -640 0 0 -60z"/>
<path d="M2490 3710 l0 -60 690 0 690 0 0 60 0 60 -690 0 -690 0 0 -60z"/>
<path d="M4595 3468 c-3 -18 -9 -62 -15 -97 -5 -35 -11 -65 -12 -66 -2 -1 -25
-10 -53 -19 -27 -9 -61 -23 -75 -30 -23 -13 -29 -10 -103 46 l-79 61 -114
-114 c-63 -63 -114 -117 -114 -122 0 -4 25 -41 56 -82 l57 -75 -26 -58 c-14
-31 -28 -66 -31 -78 -5 -17 -19 -22 -98 -33 -50 -6 -95 -14 -100 -17 -4 -3 -8
-77 -8 -164 0 -183 -15 -161 120 -180 41 -6 75 -12 76 -13 1 -1 16 -37 34 -79
l32 -77 -56 -75 c-31 -40 -56 -77 -56 -81 0 -4 51 -58 113 -121 l112 -113 81
59 81 59 74 -31 c41 -18 75 -33 77 -34 1 -1 7 -30 12 -65 6 -35 12 -79 15 -96
l6 -33 164 0 163 0 12 89 c7 49 15 93 19 97 3 5 40 24 80 42 l75 32 77 -59 77
-59 117 118 117 118 -57 76 -57 76 25 62 c14 35 28 70 30 79 4 13 28 20 94 29
48 6 94 13 101 15 14 5 18 320 4 329 -5 3 -50 10 -100 17 -79 10 -92 14 -98
33 -3 11 -17 47 -31 78 l-25 57 56 77 c31 42 56 79 56 83 0 3 -51 57 -114 120
l-114 113 -77 -58 c-74 -56 -78 -57 -108 -45 -18 7 -52 20 -77 28 -25 9 -48
21 -51 26 -4 5 -10 37 -14 71 -3 33 -9 73 -12 89 l-5 27 -164 0 -163 0 -6 -32z
m229 -105 c2 -10 7 -43 11 -73 9 -74 14 -90 30 -90 32 0 145 -42 197 -74 l58
-34 69 53 69 53 40 -41 41 -42 -51 -68 -51 -69 35 -66 c39 -74 52 -107 68
-169 8 -34 15 -43 32 -43 12 0 50 -5 85 -11 l63 -11 0 -57 0 -58 -82 -11 c-45
-7 -85 -17 -89 -24 -4 -6 -10 -28 -14 -47 -3 -20 -26 -77 -51 -128 l-45 -92
51 -67 51 -68 -38 -38 c-20 -21 -40 -38 -44 -38 -3 0 -36 23 -72 50 l-66 50
-67 -36 c-36 -21 -98 -47 -137 -59 l-72 -22 -7 -54 c-4 -30 -10 -69 -13 -87
l-6 -33 -57 3 -57 3 -6 53 c-14 113 -17 120 -52 127 -48 10 -157 55 -200 82
l-37 23 -67 -50 c-36 -27 -69 -50 -72 -50 -4 0 -24 17 -45 39 l-38 38 52 70
51 70 -40 74 c-22 41 -46 100 -55 132 -8 33 -16 61 -19 63 -2 2 -40 9 -85 16
l-82 11 0 57 c0 65 -8 60 118 76 46 6 53 10 58 33 16 71 54 163 94 227 12 20
9 27 -31 80 -25 33 -48 64 -52 71 -7 12 58 82 76 83 4 0 37 -22 73 -49 l65
-49 57 34 c52 32 165 74 197 74 15 0 21 21 31 105 3 33 8 63 11 68 2 4 28 7
58 7 43 0 55 -4 59 -17z"/>
<path d="M4674 2981 c-181 -46 -304 -234 -274 -418 48 -295 411 -414 620 -204
86 86 105 134 105 261 0 94 -3 111 -27 160 -33 67 -105 139 -177 176 -44 22
-70 28 -135 30 -45 2 -95 -1 -112 -5z m164 -126 c62 -19 104 -52 140 -114 23
-39 27 -57 27 -122 0 -67 -4 -81 -30 -125 -96 -155 -324 -155 -419 0 -81 130
-17 308 128 360 54 19 91 19 154 1z"/>
<path d="M2027 3243 c-4 -3 -7 -33 -7 -65 l0 -58 925 0 925 0 0 65 0 65 -918
0 c-505 0 -922 -3 -925 -7z"/>
<path d="M1384 2706 c-3 -7 -4 -35 -2 -62 l3 -49 1145 0 1145 0 3 63 3 62
-1146 0 c-964 0 -1146 -2 -1151 -14z"/>
<path d="M3055 2250 c-11 -5 -86 -37 -167 -71 -92 -38 -148 -67 -148 -75 0 -8
12 -62 26 -120 l27 -106 -84 -84 -85 -84 -113 31 c-63 16 -117 26 -122 22 -6
-6 -58 -127 -146 -339 -2 -7 43 -40 101 -75 l106 -63 0 -118 0 -117 -105 -63
c-58 -35 -104 -66 -103 -70 2 -4 35 -83 73 -177 58 -142 73 -171 90 -170 11 0
65 13 119 27 l100 27 84 -84 84 -84 -30 -118 -29 -117 179 -75 c178 -75 179
-75 193 -54 7 12 36 59 63 105 l50 83 118 0 118 0 62 -103 c37 -62 67 -102 75
-100 19 5 321 131 336 140 9 6 5 37 -17 124 l-30 116 82 81 c45 45 88 81 94
81 7 0 55 -11 108 -25 53 -14 102 -25 110 -25 7 0 42 71 84 173 40 96 72 176
72 179 0 4 -46 33 -103 66 l-103 60 0 120 -1 120 99 57 c54 31 100 61 103 66
5 6 -128 344 -140 357 -1 2 -55 -10 -120 -27 l-118 -29 -83 84 -84 85 29 117
c17 64 29 117 28 118 -7 6 -345 144 -353 144 -5 0 -36 -46 -69 -102 l-60 -101
-118 -1 -118 -1 -62 102 c-34 57 -66 103 -72 102 -5 0 -19 -4 -30 -9z m45
-237 l51 -88 186 1 185 0 54 92 54 92 53 -22 c28 -11 64 -26 80 -32 15 -5 27
-14 27 -19 0 -5 -12 -54 -26 -110 l-26 -102 34 -25 c80 -60 178 -165 214 -228
1 -2 47 9 102 23 55 14 107 25 114 25 7 0 27 -36 44 -79 l31 -79 -99 -58 c-75
-44 -97 -61 -92 -73 12 -29 16 -235 6 -289 l-9 -53 86 -50 c47 -28 91 -55 98
-61 8 -6 3 -29 -21 -83 -18 -41 -35 -77 -38 -80 -2 -2 -45 6 -94 20 -49 14
-98 25 -109 24 -13 0 -36 -22 -65 -61 -25 -33 -79 -88 -120 -121 -41 -33 -76
-63 -78 -67 -1 -4 9 -50 23 -103 14 -52 25 -99 25 -105 0 -11 -148 -75 -159
-68 -5 3 -32 46 -61 96 l-52 90 -57 -8 c-73 -9 -182 -9 -251 1 l-55 8 -50 -86
c-27 -47 -52 -90 -56 -97 -5 -8 -31 -1 -88 22 -45 18 -81 34 -81 36 0 3 12 52
27 111 l26 106 -29 21 c-49 34 -154 138 -190 187 l-34 46 -82 -22 c-46 -12
-95 -25 -109 -28 -26 -7 -28 -3 -59 73 -18 45 -30 83 -27 86 3 4 46 30 94 59
l88 52 -5 49 c-7 70 -6 233 2 276 l6 36 -94 57 c-52 31 -94 60 -94 64 0 18 59
146 68 149 5 1 56 -9 113 -23 88 -23 104 -24 111 -12 4 9 26 38 47 65 36 45
64 72 165 155 l29 24 -26 104 c-14 57 -23 107 -19 111 11 11 146 66 153 62 4
-2 30 -43 59 -91z"/>
<path d="M3270 1559 c-176 -29 -316 -184 -328 -364 -11 -169 77 -313 237 -388
58 -28 77 -32 151 -32 57 0 102 6 138 18 112 39 214 148 248 265 26 88 16 203
-24 285 -77 155 -249 243 -422 216z m168 -139 c66 -30 106 -66 136 -120 127
-234 -122 -494 -360 -374 -85 43 -137 116 -150 211 -16 124 72 256 196 294 48
14 134 9 178 -11z"/>
<path d="M1380 2130 l0 -60 590 0 590 0 0 44 c0 83 58 76 -596 76 l-584 0 0
-60z"/>
<path d="M1380 1600 l0 -60 380 0 380 0 0 60 0 60 -380 0 -380 0 0 -60z"/>
</g>
</svg>
